# Blender v2.79 (sub 0) OBJ File: 'frog.blend'
# www.blender.org
v 0.079649 0.002183 0.302814
v 0.131127 0.030528 0.349579
v 0.316831 1.058925 -0.273762
v 0.099425 0.213057 0.370272
v -0.099425 0.213057 0.370271
v 0.240233 0.992825 -0.102368
v -0.240233 0.992825 -0.102369
v 0.211862 -0.089544 -0.256726
v 0.286541 -0.104108 -0.037034
v 0.103510 0.061452 -0.186014
v 0.178188 0.048458 -0.001540
v 0.239029 0.178544 -0.190311
v 0.347381 0.019075 -0.288948
v 0.422060 -0.003112 -0.093211
v 0.313707 0.108143 -0.027236
v -0.095747 0.273258 0.250226
v -0.170426 0.394746 0.104110
v 0.039772 0.386247 0.171429
v -0.034907 0.507077 0.120917
v 0.398586 -0.082633 0.250902
v 0.290233 0.081187 0.282775
v 0.534105 0.017066 0.190414
v 0.423901 0.060091 0.235954
v 0.163678 -0.057031 -0.436598
v 0.066321 -0.057031 -0.436598
v 0.163678 -0.104547 -0.351624
v 0.066321 -0.104547 -0.351624
v 0.160929 0.584627 -0.196544
v 0.160929 0.633789 -0.280458
v 0.063572 0.634059 -0.280251
v 0.063572 0.584725 -0.196513
v -0.079649 0.002183 0.302814
v -0.131127 0.030528 0.349579
v -0.106203 0.626024 -0.450085
v -0.316831 1.058925 -0.273762
v 0.106203 0.626024 -0.450085
v -0.211862 -0.089544 -0.256726
v -0.286541 -0.104108 -0.037034
v -0.103510 0.061452 -0.186014
v -0.178188 0.048458 -0.001540
v -0.239029 0.178544 -0.190311
v -0.347381 0.019076 -0.288948
v -0.422060 -0.003112 -0.093211
v -0.313707 0.108143 -0.027236
v 0.095747 0.273258 0.250226
v 0.170426 0.394746 0.104110
v -0.039772 0.386247 0.171429
v 0.034907 0.507077 0.120917
v -0.398586 -0.082633 0.250902
v -0.290233 0.081187 0.282775
v -0.534105 0.017067 0.190414
v -0.427604 0.060091 0.235954
v -0.163678 -0.057031 -0.436598
v -0.066321 -0.057031 -0.436598
v -0.163678 -0.104547 -0.351624
v -0.066321 -0.104547 -0.351624
v -0.160929 0.584627 -0.196544
v -0.160929 0.633789 -0.280458
v -0.063572 0.634059 -0.280251
v -0.063572 0.584725 -0.196513
vn 0.6622 -0.5579 0.5002
vn -0.2842 -0.9492 -0.1346
vn 0.2842 -0.9492 -0.1346
vn -0.4290 -0.2737 -0.8608
vn 0.7106 0.6392 -0.2940
vn 0.4290 -0.2737 -0.8608
vn -0.6622 -0.5579 0.5002
vn 0.4417 0.1953 0.8756
vn -0.4417 0.1953 0.8756
vn 0.4706 0.6049 0.6423
vn -0.7106 0.6392 -0.2940
vn -0.4706 0.6049 0.6423
vn -0.1478 -0.9868 0.0662
vn -0.8145 -0.2210 -0.5363
vn -0.3207 -0.7278 -0.6062
vn 0.5547 0.0292 -0.8315
vn 0.5455 0.8324 0.0971
vn 0.9336 -0.0996 -0.3443
vn -0.9492 0.3115 -0.0446
vn 0.2855 0.7163 -0.6367
vn 0.0910 -0.7674 0.6347
vn 0.5302 0.4274 0.7322
vn -0.4419 -0.2937 0.8476
vn -0.6479 -0.4939 0.5799
vn 0.4187 0.6584 0.6254
vn -0.4519 0.4155 0.7893
vn 0.9675 0.0801 0.2396
vn 0.5648 -0.7534 0.3367
vn -0.5926 -0.3286 -0.7354
vn 0.5954 -0.3265 -0.7341
vn -0.5635 0.7584 -0.3274
vn 0.5944 0.3203 0.7376
vn 0.5624 0.7583 -0.3298
vn -0.5625 -0.7552 0.3365
vn -0.5966 0.3183 0.7366
vn 0.8145 -0.2210 -0.5363
vn 0.1478 -0.9868 0.0662
vn 0.3207 -0.7278 -0.6062
vn -0.5547 0.0292 -0.8315
vn -0.5453 0.8326 0.0967
vn -0.2855 0.7163 -0.6367
vn 0.9492 0.3115 -0.0446
vn -0.9336 -0.0996 -0.3443
vn -0.0896 -0.7692 0.6326
vn -0.9689 0.0767 0.2350
vn -0.5302 0.4274 0.7322
vn 0.4419 -0.2937 0.8476
vn 0.0632 0.9835 0.1693
vn 0.6479 -0.4939 0.5799
vn -0.4225 0.6552 0.6262
vn 0.4550 0.4149 0.7879
vn 0.5926 -0.3286 -0.7354
vn -0.5648 -0.7534 0.3367
vn -0.5954 -0.3265 -0.7341
vn -0.5944 0.3203 0.7376
vn 0.5635 0.7584 -0.3274
vn -0.5624 0.7583 -0.3298
vn 0.5625 -0.7552 0.3365
vn 0.5966 0.3183 0.7366
vn -0.0632 0.9835 0.1693
s 1
f 2//1 32//2 1//3
f 34//4 3//5 36//6
f 36//6 2//1 1//3
f 33//7 4//8 5//9
f 36//6 32//2 34//4
f 6//10 5//9 4//8
f 35//11 6//10 3//5
f 33//7 7//12 35//11
f 2//1 6//10 4//8
f 9//13 10//14 8//15
f 13//16 15//17 14//18
f 10//14 13//16 8//15
f 17//19 12//20 10//14
f 8//15 14//18 9//13
f 14//18 20//21 9//13
f 18//22 17//19 16//23
f 12//20 18//22 15//17
f 11//24 17//19 10//14
f 18//22 11//24 15//17
f 20//21 23//25 21//26
f 21//26 15//17 11//24
f 15//17 22//27 14//18
f 20//21 11//24 9//13
f 26//28 25//29 24//30
f 30//31 28//32 29//33
f 27//34 28//32 31//35
f 25//29 29//33 24//30
f 25//29 31//35 30//31
f 24//30 28//32 26//28
f 33//7 34//4 32//2
f 39//36 38//37 37//38
f 42//39 44//40 41//41
f 39//36 42//39 41//41
f 41//41 46//42 39//36
f 37//38 43//43 42//39
f 43//43 49//44 51//45
f 46//42 47//46 45//47
f 41//41 47//46 48//48
f 40//49 46//42 45//47
f 40//49 47//46 44//40
f 49//44 52//50 51//45
f 44//40 50//51 40//49
f 44//40 51//45 52//50
f 40//49 49//44 38//37
f 54//52 55//53 53//54
f 57//55 59//56 58//57
f 56//58 57//55 55//53
f 58//57 54//52 53//54
f 54//52 60//59 56//58
f 57//55 53//54 55//53
f 2//1 33//7 32//2
f 34//4 35//11 3//5
f 36//6 3//5 2//1
f 33//7 2//1 4//8
f 36//6 1//3 32//2
f 6//10 7//12 5//9
f 35//11 7//12 6//10
f 33//7 5//9 7//12
f 2//1 3//5 6//10
f 9//13 11//24 10//14
f 13//16 12//20 15//17
f 10//14 12//20 13//16
f 17//19 19//60 12//20
f 8//15 13//16 14//18
f 14//18 22//27 20//21
f 18//22 19//60 17//19
f 12//20 19//60 18//22
f 11//24 16//23 17//19
f 18//22 16//23 11//24
f 20//21 22//27 23//25
f 21//26 23//25 15//17
f 15//17 23//25 22//27
f 20//21 21//26 11//24
f 26//28 27//34 25//29
f 30//31 31//35 28//32
f 27//34 26//28 28//32
f 25//29 30//31 29//33
f 25//29 27//34 31//35
f 24//30 29//33 28//32
f 33//7 35//11 34//4
f 39//36 40//49 38//37
f 42//39 43//43 44//40
f 39//36 37//38 42//39
f 41//41 48//48 46//42
f 37//38 38//37 43//43
f 43//43 38//37 49//44
f 46//42 48//48 47//46
f 41//41 44//40 47//46
f 40//49 39//36 46//42
f 40//49 45//47 47//46
f 49//44 50//51 52//50
f 44//40 52//50 50//51
f 44//40 43//43 51//45
f 40//49 50//51 49//44
f 54//52 56//58 55//53
f 57//55 60//59 59//56
f 56//58 60//59 57//55
f 58//57 59//56 54//52
f 54//52 59//56 60//59
f 57//55 58//57 53//54
