# Blender v2.79 (sub 0) OBJ File: 'frog.blend'
# www.blender.org
v 0.079649 0.002183 0.302814
v 0.131127 0.030528 0.349579
v 0.316831 1.058925 -0.273762
v 0.099425 0.213057 0.370272
v -0.099425 0.213057 0.370271
v 0.240233 0.992825 -0.102368
v -0.240233 0.992825 -0.102369
v 0.211862 -0.004110 -0.315151
v 0.286541 -0.024531 -0.083451
v 0.103510 0.136185 -0.237389
v 0.178188 0.122185 -0.058103
v 0.239029 0.251613 -0.217725
v 0.347381 0.101897 -0.338170
v 0.422060 0.072863 -0.143128
v 0.313707 0.154358 -0.077041
v -0.095747 0.270252 0.249003
v -0.170426 0.398343 0.107143
v 0.039772 0.382994 0.176547
v -0.034907 0.509741 0.137049
v 0.398586 0.014358 0.206950
v 0.290233 0.178300 0.228194
v 0.534105 0.110315 0.140686
v 0.423901 0.149715 0.179580
v 0.163678 -0.041497 -0.479074
v 0.066321 -0.041497 -0.479074
v 0.163678 -0.094531 -0.397430
v 0.066322 -0.094531 -0.397430
v 0.160929 0.583188 -0.196970
v 0.160929 0.636666 -0.278306
v 0.063572 0.636739 -0.278246
v 0.063572 0.583215 -0.196960
v -0.079649 0.002183 0.302814
v -0.131127 0.030528 0.349579
v -0.106203 0.626024 -0.450085
v -0.316831 1.058925 -0.273762
v 0.106203 0.626024 -0.450085
v -0.211862 -0.004110 -0.315151
v -0.286541 -0.024531 -0.083451
v -0.103510 0.136185 -0.237389
v -0.178188 0.122185 -0.058103
v -0.239029 0.251613 -0.217725
v -0.347381 0.101897 -0.338170
v -0.422060 0.072863 -0.143128
v -0.313707 0.154358 -0.077041
v 0.095747 0.270252 0.249003
v 0.170426 0.398343 0.107143
v -0.039772 0.382994 0.176547
v 0.034907 0.509741 0.137049
v -0.398586 0.014358 0.206950
v -0.290233 0.178300 0.228194
v -0.534105 0.110315 0.140686
v -0.427604 0.149715 0.179580
v -0.163678 -0.041497 -0.479074
v -0.066321 -0.041497 -0.479074
v -0.163678 -0.094531 -0.397430
v -0.066322 -0.094531 -0.397430
v -0.160929 0.583188 -0.196970
v -0.160929 0.636666 -0.278306
v -0.063572 0.636739 -0.278246
v -0.063572 0.583215 -0.196960
vn 0.6622 -0.5579 0.5002
vn -0.2842 -0.9492 -0.1346
vn 0.2842 -0.9492 -0.1346
vn -0.4290 -0.2737 -0.8608
vn 0.7106 0.6392 -0.2940
vn 0.4290 -0.2737 -0.8608
vn -0.6622 -0.5579 0.5002
vn 0.4417 0.1953 0.8756
vn -0.4417 0.1953 0.8756
vn 0.4706 0.6049 0.6423
vn -0.7106 0.6392 -0.2940
vn -0.4706 0.6049 0.6423
vn -0.3237 -0.6970 -0.6399
vn -0.5825 -0.6410 0.4997
vn -0.8164 -0.1579 -0.5555
vn 0.5699 0.0898 -0.8168
vn 0.5096 0.8593 0.0434
vn 0.9410 -0.0584 -0.3332
vn -0.9627 0.2703 -0.0123
vn 0.2962 0.8109 -0.5047
vn -0.1562 -0.9845 0.0799
vn 0.0968 -0.7205 0.6866
vn 0.5382 0.3137 0.7823
vn -0.4149 -0.3916 0.8213
vn 0.4057 0.7350 0.5432
vn -0.4487 0.5030 0.7387
vn 0.9648 0.1381 0.2235
vn 0.5648 -0.7740 0.2861
vn -0.5926 -0.2794 -0.7554
vn 0.5954 -0.2774 -0.7540
vn -0.5644 0.7753 -0.2835
vn 0.5931 0.2771 0.7559
vn 0.5625 0.7765 -0.2839
vn -0.5625 -0.7757 0.2858
vn -0.5958 0.2751 0.7545
vn 0.3237 -0.6970 -0.6399
vn 0.5825 -0.6410 0.4997
vn 0.1562 -0.9845 0.0799
vn -0.5699 0.0898 -0.8168
vn -0.5095 0.8594 0.0430
vn -0.2962 0.8109 -0.5047
vn 0.8164 -0.1579 -0.5555
vn 0.9627 0.2703 -0.0123
vn -0.9410 -0.0584 -0.3332
vn -0.0955 -0.7226 0.6846
vn -0.9663 0.1347 0.2194
vn -0.5382 0.3137 0.7823
vn 0.4149 -0.3916 0.8213
vn 0.0746 0.9525 0.2953
vn -0.4088 0.7318 0.5453
vn 0.4519 0.5022 0.7372
vn 0.5926 -0.2794 -0.7554
vn -0.5648 -0.7740 0.2861
vn -0.5954 -0.2774 -0.7540
vn -0.5931 0.2771 0.7559
vn 0.5644 0.7753 -0.2835
vn -0.5625 0.7765 -0.2839
vn 0.5625 -0.7757 0.2858
vn 0.5958 0.2751 0.7545
vn -0.0746 0.9525 0.2953
s 1
f 2//1 32//2 1//3
f 34//4 3//5 36//6
f 36//6 2//1 1//3
f 33//7 4//8 5//9
f 36//6 32//2 34//4
f 6//10 5//9 4//8
f 35//11 6//10 3//5
f 33//7 7//12 35//11
f 2//1 6//10 4//8
f 8//13 11//14 10//15
f 13//16 15//17 14//18
f 10//15 13//16 8//13
f 17//19 12//20 10//15
f 8//13 14//18 9//21
f 14//18 20//22 9//21
f 18//23 17//19 16//24
f 12//20 18//23 15//17
f 11//14 17//19 10//15
f 18//23 11//14 15//17
f 20//22 23//25 21//26
f 21//26 15//17 11//14
f 15//17 22//27 14//18
f 20//22 11//14 9//21
f 26//28 25//29 24//30
f 30//31 28//32 29//33
f 27//34 28//32 31//35
f 25//29 29//33 24//30
f 25//29 31//35 30//31
f 24//30 28//32 26//28
f 33//7 34//4 32//2
f 37//36 40//37 38//38
f 42//39 44//40 41//41
f 39//42 42//39 41//41
f 41//41 46//43 39//42
f 37//36 43//44 42//39
f 43//44 49//45 51//46
f 46//43 47//47 45//48
f 41//41 47//47 48//49
f 40//37 46//43 45//48
f 40//37 47//47 44//40
f 49//45 52//50 51//46
f 44//40 50//51 40//37
f 44//40 51//46 52//50
f 40//37 49//45 38//38
f 54//52 55//53 53//54
f 57//55 59//56 58//57
f 56//58 57//55 55//53
f 58//57 54//52 53//54
f 54//52 60//59 56//58
f 57//55 53//54 55//53
f 2//1 33//7 32//2
f 34//4 35//11 3//5
f 36//6 3//5 2//1
f 33//7 2//1 4//8
f 36//6 1//3 32//2
f 6//10 7//12 5//9
f 35//11 7//12 6//10
f 33//7 5//9 7//12
f 2//1 3//5 6//10
f 8//13 9//21 11//14
f 13//16 12//20 15//17
f 10//15 12//20 13//16
f 17//19 19//60 12//20
f 8//13 13//16 14//18
f 14//18 22//27 20//22
f 18//23 19//60 17//19
f 12//20 19//60 18//23
f 11//14 16//24 17//19
f 18//23 16//24 11//14
f 20//22 22//27 23//25
f 21//26 23//25 15//17
f 15//17 23//25 22//27
f 20//22 21//26 11//14
f 26//28 27//34 25//29
f 30//31 31//35 28//32
f 27//34 26//28 28//32
f 25//29 30//31 29//33
f 25//29 27//34 31//35
f 24//30 29//33 28//32
f 33//7 35//11 34//4
f 37//36 39//42 40//37
f 42//39 43//44 44//40
f 39//42 37//36 42//39
f 41//41 48//49 46//43
f 37//36 38//38 43//44
f 43//44 38//38 49//45
f 46//43 48//49 47//47
f 41//41 44//40 47//47
f 40//37 39//42 46//43
f 40//37 45//48 47//47
f 49//45 50//51 52//50
f 44//40 52//50 50//51
f 44//40 43//44 51//46
f 40//37 50//51 49//45
f 54//52 56//58 55//53
f 57//55 60//59 59//56
f 56//58 60//59 57//55
f 58//57 59//56 54//52
f 54//52 59//56 60//59
f 57//55 58//57 53//54
