# Blender v2.79 (sub 0) OBJ File: 'frog.blend'
# www.blender.org
v 0.079649 0.002183 0.302814
v 0.131127 0.030528 0.349579
v 0.316831 1.058925 -0.273762
v 0.099425 0.213057 0.370272
v -0.099425 0.213057 0.370271
v 0.240233 0.992825 -0.102368
v -0.240233 0.992825 -0.102369
v 0.211862 -0.159181 -0.181283
v 0.286541 -0.169839 0.022871
v 0.103510 -0.000662 -0.119926
v 0.178188 -0.011879 0.067190
v 0.239029 0.112917 -0.147987
v 0.347381 -0.050730 -0.222490
v 0.422060 -0.065959 -0.029600
v 0.313707 0.073224 0.030958
v -0.095747 0.276455 0.250784
v -0.170426 0.390517 0.101906
v 0.039772 0.388341 0.165737
v -0.034907 0.501051 0.105717
v 0.398586 -0.166499 0.307461
v 0.290233 -0.003248 0.349614
v 0.534105 -0.063405 0.252960
v 0.423900 -0.016359 0.303978
v 0.163678 -0.069720 -0.393187
v 0.066321 -0.069720 -0.393187
v 0.163678 -0.111510 -0.305256
v 0.066321 -0.111510 -0.305256
v 0.160929 0.586092 -0.196214
v 0.160929 0.630775 -0.282416
v 0.063572 0.631252 -0.282074
v 0.063572 0.586261 -0.196167
v -0.079649 0.002183 0.302814
v -0.131127 0.030528 0.349579
v -0.106203 0.626024 -0.450085
v -0.316831 1.058925 -0.273762
v 0.106203 0.626024 -0.450085
v -0.211862 -0.159181 -0.181283
v -0.286541 -0.169839 0.022871
v -0.103510 -0.000662 -0.119926
v -0.178188 -0.011879 0.067190
v -0.239029 0.112917 -0.147987
v -0.347381 -0.050730 -0.222490
v -0.422060 -0.065958 -0.029600
v -0.313707 0.073224 0.030958
v 0.095747 0.276455 0.250784
v 0.170426 0.390517 0.101906
v -0.039772 0.388341 0.165737
v 0.034907 0.501051 0.105717
v -0.398586 -0.166499 0.307461
v -0.290233 -0.003248 0.349614
v -0.534105 -0.063404 0.252960
v -0.427604 -0.016359 0.303978
v -0.163678 -0.069720 -0.393187
v -0.066321 -0.069720 -0.393187
v -0.163678 -0.111510 -0.305256
v -0.066321 -0.111510 -0.305256
v -0.160929 0.586092 -0.196214
v -0.160929 0.630775 -0.282416
v -0.063572 0.631252 -0.282074
v -0.063572 0.586261 -0.196167
vn 0.6622 -0.5579 0.5002
vn -0.2842 -0.9492 -0.1346
vn 0.2842 -0.9492 -0.1346
vn -0.4290 -0.2737 -0.8608
vn 0.7106 0.6392 -0.2940
vn 0.4290 -0.2737 -0.8608
vn -0.6622 -0.5579 0.5002
vn 0.4417 0.1953 0.8756
vn -0.4417 0.1953 0.8756
vn 0.4706 0.6049 0.6423
vn -0.7106 0.6392 -0.2940
vn -0.4706 0.6049 0.6423
vn -0.1518 -0.9875 0.0412
vn -0.7891 -0.3148 -0.5275
vn -0.3303 -0.7574 -0.5632
vn 0.2611 0.6068 -0.7507
vn 0.9476 -0.1165 -0.2975
vn 0.5352 -0.0448 -0.8435
vn -0.9224 0.3760 -0.0884
vn 0.0851 -0.8085 0.5823
vn 0.5273 0.5264 0.6670
vn -0.4492 -0.1420 0.8820
vn 0.6057 0.7765 0.1735
vn -0.6752 -0.4010 0.6191
vn 0.4740 0.6130 0.6320
vn -0.4580 0.3269 0.8266
vn 0.5648 -0.7294 0.3859
vn -0.5925 -0.3762 -0.7122
vn 0.5953 -0.3741 -0.7111
vn -0.5627 0.7391 -0.3703
vn 0.5957 0.3624 0.7168
vn 0.5622 0.7373 -0.3745
vn -0.5625 -0.7312 0.3858
vn -0.5975 0.3605 0.7163
vn 0.7891 -0.3148 -0.5275
vn 0.1518 -0.9875 0.0412
vn 0.3303 -0.7574 -0.5632
vn -0.9468 -0.1174 -0.2996
vn -0.2611 0.6068 -0.7507
vn -0.5352 -0.0448 -0.8435
vn 0.9224 0.3760 -0.0884
vn -0.0837 -0.8101 0.5802
vn -0.9775 0.0976 0.1870
vn -0.5273 0.5264 0.6670
vn 0.4492 -0.1420 0.8820
vn 0.0530 0.9977 0.0415
vn 0.6752 -0.4010 0.6191
vn -0.6040 0.7782 0.1718
vn -0.4773 0.6096 0.6329
vn 0.4609 0.3265 0.8252
vn 0.5925 -0.3762 -0.7122
vn -0.5648 -0.7294 0.3859
vn -0.5953 -0.3741 -0.7111
vn -0.5957 0.3624 0.7168
vn 0.5627 0.7391 -0.3703
vn -0.5622 0.7373 -0.3745
vn 0.5625 -0.7312 0.3858
vn 0.5975 0.3605 0.7163
vn -0.0530 0.9977 0.0415
vn 0.9763 0.1026 0.1906
s 1
f 2//1 32//2 1//3
f 34//4 3//5 36//6
f 36//6 2//1 1//3
f 33//7 4//8 5//9
f 36//6 32//2 34//4
f 6//10 5//9 4//8
f 35//11 6//10 3//5
f 33//7 7//12 35//11
f 2//1 6//10 4//8
f 9//13 10//14 8//15
f 12//16 14//17 13//18
f 10//14 13//18 8//15
f 17//19 12//16 10//14
f 8//15 14//17 9//13
f 14//17 20//20 9//13
f 18//21 17//19 16//22
f 12//16 18//21 15//23
f 16//22 10//14 11//24
f 18//21 11//24 15//23
f 20//20 23//25 21//26
f 21//26 15//23 11//24
f 23//25 14//17 15//23
f 20//20 11//24 9//13
f 26//27 25//28 24//29
f 30//30 28//31 29//32
f 27//33 28//31 31//34
f 25//28 29//32 24//29
f 25//28 31//34 30//30
f 24//29 28//31 26//27
f 33//7 34//4 32//2
f 39//35 38//36 37//37
f 43//38 41//39 42//40
f 39//35 42//40 41//39
f 41//39 46//41 39//35
f 37//37 43//38 42//40
f 43//38 49//42 51//43
f 46//41 47//44 45//45
f 41//39 47//44 48//46
f 39//35 45//45 40//47
f 40//47 47//44 44//48
f 49//42 52//49 51//43
f 44//48 50//50 40//47
f 43//38 52//49 44//48
f 40//47 49//42 38//36
f 54//51 55//52 53//53
f 57//54 59//55 58//56
f 56//57 57//54 55//52
f 58//56 54//51 53//53
f 54//51 60//58 56//57
f 57//54 53//53 55//52
f 2//1 33//7 32//2
f 34//4 35//11 3//5
f 36//6 3//5 2//1
f 33//7 2//1 4//8
f 36//6 1//3 32//2
f 6//10 7//12 5//9
f 35//11 7//12 6//10
f 33//7 5//9 7//12
f 2//1 3//5 6//10
f 9//13 11//24 10//14
f 12//16 15//23 14//17
f 10//14 12//16 13//18
f 17//19 19//59 12//16
f 8//15 13//18 14//17
f 14//17 22//60 20//20
f 18//21 19//59 17//19
f 12//16 19//59 18//21
f 16//22 17//19 10//14
f 18//21 16//22 11//24
f 20//20 22//60 23//25
f 21//26 23//25 15//23
f 23//25 22//60 14//17
f 20//20 21//26 11//24
f 26//27 27//33 25//28
f 30//30 31//34 28//31
f 27//33 26//27 28//31
f 25//28 30//30 29//32
f 25//28 27//33 31//34
f 24//29 29//32 28//31
f 33//7 35//11 34//4
f 39//35 40//47 38//36
f 43//38 44//48 41//39
f 39//35 37//37 42//40
f 41//39 48//46 46//41
f 37//37 38//36 43//38
f 43//38 38//36 49//42
f 46//41 48//46 47//44
f 41//39 44//48 47//44
f 39//35 46//41 45//45
f 40//47 45//45 47//44
f 49//42 50//50 52//49
f 44//48 52//49 50//50
f 43//38 51//43 52//49
f 40//47 50//50 49//42
f 54//51 56//57 55//52
f 57//54 60//58 59//55
f 56//57 60//58 57//54
f 58//56 59//55 54//51
f 54//51 59//55 60//58
f 57//54 58//56 53//53
