# Blender v2.71 (sub 0) OBJ File: 'tree.blend'
# www.blender.org
mtllib tree.mtl
o Cube
v -0.102403 1.649192 -0.204805
v -0.102403 1.649192 0.204805
v -0.102403 0.000000 0.204805
v -0.102403 0.000000 -0.204805
v 0.102403 1.649192 -0.204805
v 0.102403 1.649192 0.204805
v 0.102403 0.000000 0.204805
v 0.102403 0.000000 -0.204805
v 0.204805 1.649192 0.102403
v 0.204805 0.000000 0.102403
v -0.204805 1.649192 0.102403
v -0.204805 0.000000 0.102403
v -0.204805 1.649192 -0.102403
v -0.204805 0.000000 -0.102403
v 0.204805 1.649192 -0.102403
v 0.204805 0.000000 -0.102403
v -0.199356 1.812385 -0.398712
v -0.199356 1.812385 0.398712
v 0.199356 1.812385 -0.398712
v 0.199356 1.812385 0.398712
v 0.398712 1.812385 0.199356
v -0.398712 1.812385 0.199356
v -0.398712 1.812385 -0.199356
v 0.398712 1.812385 -0.199356
v -0.339082 2.071268 -0.678164
v -0.339082 2.071268 0.678164
v 0.339082 2.071268 -0.678164
v 0.339082 2.071268 0.678164
v 0.678164 2.071268 0.339082
v -0.678164 2.071268 0.339082
v -0.678164 2.071268 -0.339082
v 0.678164 2.071268 -0.339082
v -0.465034 2.388680 -0.930068
v -0.465035 2.388680 0.930068
v 0.465035 2.388680 -0.930068
v 0.465034 2.388680 0.930069
v 0.930068 2.388680 0.465035
v -0.930068 2.388680 0.465034
v -0.930068 2.388680 -0.465034
v 0.930069 2.388680 -0.465034
v -0.465034 2.832445 -0.930068
v -0.465035 2.832445 0.930068
v 0.465035 2.832445 -0.930068
v 0.465034 2.832445 0.930069
v 0.930068 2.832445 0.465035
v -0.930069 2.832445 0.465034
v -0.930068 2.832445 -0.465034
v 0.930069 2.832445 -0.465034
v -0.153669 3.653611 -0.307339
v -0.153670 3.653611 0.307339
v 0.153669 3.653611 -0.307339
v 0.153669 3.653611 0.307339
v 0.307339 3.653611 0.153670
v -0.307339 3.653611 0.153669
v -0.307339 3.653611 -0.153669
v 0.307339 3.653611 -0.153669
vt 0.227917 0.333059
vt 0.281186 0.352242
vt 0.260931 0.399845
vt 0.347602 0.501282
vt 0.333221 0.463462
vt 0.376277 0.440732
vt 0.318324 0.439663
vt 0.287775 0.413801
vt 0.314834 0.373022
vt 0.086769 0.343460
vt 0.047636 0.294664
vt 0.116407 0.272281
vt 0.257581 0.492223
vt 0.269301 0.466123
vt 0.307121 0.451742
vt 0.185716 0.326630
vt 0.181693 0.382649
vt 0.132907 0.385185
vt 0.216237 0.387132
vt 0.354439 0.409398
vt 0.097858 0.393026
vt 0.124703 0.331624
vt 0.009890 0.214479
vt 0.115135 0.209576
vt 0.396275 0.385915
vt 0.420056 0.427900
vt 0.348363 0.338834
vt 0.199214 0.273368
vt 0.427182 0.505002
vt 0.247847 0.286015
vt 0.310621 0.312604
vt 0.000074 0.139087
vt 0.120874 0.166913
vt 0.434747 0.362039
vt 0.466172 0.412218
vt 0.378612 0.307256
vt 0.214223 0.225635
vt 0.490962 0.528363
vt 0.267701 0.244124
vt 0.336566 0.277214
vt 0.003114 0.127027
vt 0.122892 0.159052
vt 0.458891 0.344440
vt 0.396138 0.285626
vt 0.225654 0.195729
vt 0.495480 0.397081
vt 0.549974 0.541762
vt 0.279238 0.217648
vt 0.352411 0.254588
vt 0.155274 0.000074
vt 0.207793 0.032578
vt 0.463364 0.340435
vt 0.501645 0.393841
vt 0.399562 0.281404
vt 0.227547 0.189873
vt 0.560213 0.537976
vt 0.281519 0.212620
vt 0.355078 0.249974
vt 0.695371 0.145579
vt 0.780251 0.035741
vt 0.877610 0.023263
vt 0.635574 0.183791
vt 0.707850 0.242938
vt 0.531429 0.129444
vt 0.298304 0.051775
vt 0.362974 0.069629
vt 0.460644 0.094937
vt 0.385839 0.489228
vt 0.298062 0.541762
vt 0.335882 0.527382
vt 0.271962 0.530043
vt 0.987448 0.108143
vt 0.999926 0.205502
vt 0.817687 0.327818
vt 0.915046 0.315339
vn -0.325600 -0.495600 -0.805200
vn 0.325600 -0.495600 -0.805200
vn 0.297100 -0.630200 -0.717300
vn -0.297100 -0.630200 0.717300
vn 0.297100 -0.630200 0.717300
vn 0.325600 -0.495600 0.805200
vn 0.717300 -0.630200 0.297100
vn 0.717300 -0.630200 -0.297100
vn 0.805200 -0.495600 -0.325600
vn -0.325600 -0.495600 0.805200
vn -0.234900 -0.781000 0.578700
vn -0.578700 -0.781000 0.234900
vn -0.805200 -0.495600 -0.325600
vn -0.717300 -0.630200 -0.297100
vn -0.717300 -0.630200 0.297100
vn -0.297100 -0.630200 -0.717300
vn 0.805200 -0.495600 0.325600
vn -0.805200 -0.495600 0.325600
vn -0.266400 -0.708600 0.653300
vn -0.653300 -0.708600 0.266400
vn 0.578700 -0.781000 0.234900
vn 0.234900 -0.781000 0.578700
vn 0.578700 -0.781000 -0.234900
vn -0.578700 -0.781000 -0.234900
vn -0.234900 -0.781000 -0.578700
vn 0.234900 -0.781000 -0.578700
vn -0.364600 -0.328700 0.871200
vn -0.871200 -0.328700 0.364600
vn 0.653300 -0.708600 0.266400
vn 0.266400 -0.708600 0.653300
vn 0.653300 -0.708600 -0.266400
vn -0.653300 -0.708600 -0.266400
vn -0.266400 -0.708600 -0.653300
vn 0.266400 -0.708600 -0.653300
vn -0.365800 0.319500 0.874100
vn -0.874100 0.319500 0.365800
vn 0.871200 -0.328700 0.364600
vn 0.871200 -0.328700 -0.364600
vn -0.871200 -0.328700 -0.364600
vn 0.364600 -0.328700 0.871200
vn -0.364600 -0.328700 -0.871200
vn 0.364600 -0.328700 -0.871200
vn -0.184500 0.866200 0.464400
vn -0.464400 0.866200 0.184500
vn 0.874100 0.319500 0.365800
vn 0.365800 0.319500 0.874100
vn 0.874100 0.319500 -0.365800
vn -0.874100 0.319500 -0.365800
vn -0.365800 0.319500 -0.874100
vn 0.365800 0.319500 -0.874100
vn 0.464400 0.866200 0.184500
vn 0.464400 0.866200 -0.184500
vn 0.184500 0.866200 -0.464400
vn 0.184500 0.866200 0.464400
vn -0.464400 0.866200 -0.184500
vn -0.184500 0.866200 -0.464400
usemtl Material
s 1
f 1/1/1 5/2/2 8/3/3
f 3/4/4 7/5/5 6/6/6
f 10/7/7 16/8/8 15/9/9
f 2/10/10 18/11/11 22/12/12
f 8/13/3 16/14/8 10/15/7
f 13/16/13 14/17/14 12/18/15
f 16/8/8 8/3/3 5/2/2
f 1/1/1 4/19/16 14/17/14
f 10/7/7 9/20/17 6/6/6
f 3/21/4 2/10/10 11/22/18
f 18/11/11 26/23/19 30/24/20
f 9/20/17 21/25/21 20/26/22
f 15/9/9 24/27/23 21/25/21
f 11/22/18 22/12/12 23/28/24
f 6/6/6 20/26/22 18/29/11
f 1/1/1 17/30/25 19/31/26
f 13/16/13 23/28/24 17/30/25
f 5/2/2 19/31/26 24/27/23
f 26/23/19 34/32/27 38/33/28
f 21/25/21 29/34/29 28/35/30
f 21/25/21 24/27/23 32/36/31
f 22/12/12 30/24/20 31/37/32
f 20/26/22 28/35/30 26/38/19
f 17/30/25 25/39/33 27/40/34
f 17/30/25 23/28/24 31/37/32
f 19/31/26 27/40/34 32/36/31
f 34/32/27 42/41/35 46/42/36
f 28/35/30 29/34/29 37/43/37
f 32/36/31 40/44/38 37/43/37
f 30/24/20 38/33/28 39/45/39
f 28/35/30 36/46/40 34/47/27
f 25/39/33 33/48/41 35/49/42
f 31/37/32 39/45/39 33/48/41
f 27/40/34 35/49/42 40/44/38
f 42/41/35 50/50/43 54/51/44
f 37/43/37 45/52/45 44/53/46
f 40/44/38 48/54/47 45/52/45
f 38/33/28 46/42/36 47/55/48
f 36/46/40 44/53/46 42/56/35
f 35/49/42 33/48/41 41/57/49
f 33/48/41 39/45/39 47/55/48
f 40/44/38 35/49/42 43/58/50
f 53/59/51 56/60/52 51/61/53
f 45/52/45 53/62/51 52/63/54
f 48/54/47 56/64/52 53/62/51
f 46/42/36 54/51/44 55/65/55
f 42/56/35 44/53/46 52/63/54
f 41/57/49 49/66/56 51/67/53
f 47/55/48 55/65/55 49/66/56
f 43/58/50 51/67/53 56/64/52
f 4/19/16 1/1/1 8/3/3
f 2/68/10 3/4/4 6/6/6
f 9/20/17 10/7/7 15/9/9
f 11/22/18 2/10/10 22/12/12
f 3/4/4 14/69/14 7/5/5
f 3/4/4 12/70/15 14/69/14
f 8/13/3 10/15/7 4/71/16
f 11/22/18 13/16/13 12/18/15
f 10/15/7 14/69/14 4/71/16
f 15/9/9 16/8/8 5/2/2
f 14/69/14 10/15/7 7/5/5
f 13/16/13 1/1/1 14/17/14
f 7/5/5 10/7/7 6/6/6
f 12/18/15 3/21/4 11/22/18
f 22/12/12 18/11/11 30/24/20
f 6/6/6 9/20/17 20/26/22
f 9/20/17 15/9/9 21/25/21
f 13/16/13 11/22/18 23/28/24
f 2/68/10 6/6/6 18/29/11
f 5/2/2 1/1/1 19/31/26
f 1/1/1 13/16/13 17/30/25
f 15/9/9 5/2/2 24/27/23
f 30/24/20 26/23/19 38/33/28
f 20/26/22 21/25/21 28/35/30
f 29/34/29 21/25/21 32/36/31
f 23/28/24 22/12/12 31/37/32
f 18/29/11 20/26/22 26/38/19
f 19/31/26 17/30/25 27/40/34
f 25/39/33 17/30/25 31/37/32
f 24/27/23 19/31/26 32/36/31
f 38/33/28 34/32/27 46/42/36
f 36/46/40 28/35/30 37/43/37
f 29/34/29 32/36/31 37/43/37
f 31/37/32 30/24/20 39/45/39
f 26/38/19 28/35/30 34/47/27
f 27/40/34 25/39/33 35/49/42
f 25/39/33 31/37/32 33/48/41
f 32/36/31 27/40/34 40/44/38
f 46/42/36 42/41/35 54/51/44
f 36/46/40 37/43/37 44/53/46
f 37/43/37 40/44/38 45/52/45
f 39/45/39 38/33/28 47/55/48
f 34/47/27 36/46/40 42/56/35
f 43/58/50 35/49/42 41/57/49
f 41/57/49 33/48/41 47/55/48
f 48/54/47 40/44/38 43/58/50
f 51/61/53 49/72/56 55/73/55
f 50/74/43 51/61/53 54/75/44
f 50/74/43 52/63/54 53/59/51
f 44/53/46 45/52/45 52/63/54
f 45/52/45 48/54/47 53/62/51
f 50/74/43 53/59/51 51/61/53
f 51/61/53 55/73/55 54/75/44
f 47/55/48 46/42/36 55/65/55
f 50/74/43 42/56/35 52/63/54
f 43/58/50 41/57/49 51/67/53
f 41/57/49 47/55/48 49/66/56
f 48/54/47 43/58/50 56/64/52
