# Blender v2.79 (sub 0) OBJ File: 'car.blend'
# www.blender.org
v 1.000000 0.013049 -1.000000
v 1.000000 0.013049 1.000000
v -1.000000 0.013049 1.000000
v -1.000000 0.013049 -1.000000
v 0.999999 2.013049 1.000001
v -1.000000 2.013049 1.000000
v 1.000000 0.013049 2.015241
v -1.000000 0.013049 2.015241
v 0.999999 1.133884 2.015242
v -1.000001 1.133884 2.015241
v 0.875083 -0.009553 3.700732
v -0.875084 -0.009553 3.700731
v 0.875082 0.566021 3.700732
v -0.875084 0.566021 3.700731
v 0.999999 2.013049 -1.000001
v -1.000000 2.013049 -1.000000
v 1.000000 0.013049 -2.015241
v -1.000000 0.013049 -2.015241
v 0.999999 1.133884 -2.015242
v -1.000001 1.133884 -2.015241
v 0.881017 -0.042876 -2.730285
v -0.881018 -0.042876 -2.730285
v 0.881017 0.944600 -2.730286
v -0.881019 0.944600 -2.730285
vn 0.0000 -1.0000 0.0000
vn 0.0000 1.0000 0.0000
vn 1.0000 0.0000 0.0000
vn -1.0000 0.0000 -0.0000
vn -0.0000 0.0000 -1.0000
vn -0.0000 0.9477 0.3193
vn -0.0000 0.7560 0.6546
vn 0.0000 -0.0000 1.0000
vn 0.9973 0.0000 0.0739
vn -0.9973 -0.0000 0.0739
vn 0.0000 -0.9999 -0.0134
vn -0.0000 0.9667 -0.2559
vn -0.0000 0.7560 -0.6546
vn 0.9864 0.0000 -0.1641
vn -0.9864 -0.0000 -0.1641
vn 0.0000 -0.9970 0.0780
s off
f 2//1 4//1 1//1
f 16//2 5//2 15//2
f 15//3 2//3 1//3
f 3//4 10//4 6//4
f 3//4 16//4 4//4
f 15//5 4//5 16//5
f 9//6 14//6 13//6
f 2//3 9//3 7//3
f 2//1 8//1 3//1
f 5//7 10//7 9//7
f 13//8 12//8 11//8
f 7//9 13//9 11//9
f 8//10 14//10 10//10
f 7//11 12//11 8//11
f 20//4 4//4 16//4
f 5//8 3//8 2//8
f 19//12 24//12 20//12
f 1//3 19//3 15//3
f 4//1 17//1 1//1
f 15//13 20//13 16//13
f 22//5 23//5 21//5
f 17//14 23//14 19//14
f 24//15 18//15 20//15
f 18//16 21//16 17//16
f 2//1 3//1 4//1
f 16//2 6//2 5//2
f 15//3 5//3 2//3
f 3//4 8//4 10//4
f 3//4 6//4 16//4
f 15//5 1//5 4//5
f 9//6 10//6 14//6
f 2//3 5//3 9//3
f 2//1 7//1 8//1
f 5//7 6//7 10//7
f 13//8 14//8 12//8
f 7//9 9//9 13//9
f 8//10 12//10 14//10
f 7//11 11//11 12//11
f 20//4 18//4 4//4
f 5//8 6//8 3//8
f 19//12 23//12 24//12
f 1//3 17//3 19//3
f 4//1 18//1 17//1
f 15//13 19//13 20//13
f 22//5 24//5 23//5
f 17//14 21//14 23//14
f 24//15 22//15 18//15
f 18//16 22//16 21//16
